HIERARCHY
ROOT pelvis
{
  OFFSET 0 100 0
  CHANNELS 6 Xposition Yposition Zposition Zrotation Xrotation Yrotation
  JOINT pelvis_right_femur
  {
    OFFSET -10.78128 -3.44521 -0.5502486
    CHANNELS 3 Zrotation Xrotation Yrotation
    JOINT right_femur_tibia
    {
      OFFSET -0.8047443 -44.0398 -0.1307829
      CHANNELS 3 Zrotation Xrotation Yrotation
      JOINT right_tibia_foot
      {
        OFFSET 3.006224 -47.83518 -5
        CHANNELS 3 Zrotation Xrotation Yrotation
        End Site
        {
          OFFSET 0 -5 15
        }
      }
    }
  }
  JOINT pelvis_left_femur
  {
    OFFSET 10.78128 -3.44521 -0.5502486
    CHANNELS 3 Zrotation Xrotation Yrotation
    JOINT left_femur_tibia
    {
      OFFSET 0.8047443 -44.0398 -0.1307829
      CHANNELS 3 Zrotation Xrotation Yrotation
      JOINT left_tibia_foot
      {
        OFFSET -4.370144 -48.10324 -4.275266
        CHANNELS 3 Zrotation Xrotation Yrotation
        End Site
        {
          OFFSET 0 -5 15
        }
      }
    }
  }
  JOINT pelvis_spine1
  {
    OFFSET 0 6.468898 -3.129235
    CHANNELS 3 Zrotation Xrotation Yrotation
    JOINT spine1
    {
      OFFSET 0 23.15396 4.99043
      CHANNELS 3 Zrotation Xrotation Yrotation
      JOINT spine2
      {
        OFFSET 0 20.79997 -5.064912
        CHANNELS 3 Zrotation Xrotation Yrotation
        JOINT neck
        {
          OFFSET 0 14.38658 9.616178
          CHANNELS 3 Zrotation Xrotation Yrotation
          End Site
          {
            OFFSET 0 20 0
          }
        }
      }
      JOINT right_manubrium
      {
        OFFSET -5.722621 16.35077 3.967754
        CHANNELS 3 Zrotation Xrotation Yrotation
        JOINT right_clavicle
        {
          OFFSET -13.16364 1.694482 -4.693211
          CHANNELS 3 Zrotation Xrotation Yrotation
          JOINT right_humerus
          {
            OFFSET -28.5034 -0.3100689 -2.792744
            CHANNELS 3 Zrotation Xrotation Yrotation
            JOINT right_radius
            {
              OFFSET -25.15693 0.02248979 -1.271978
              CHANNELS 3 Zrotation Xrotation Yrotation
              End Site
              {
                OFFSET -15 0 0
              }
            }
          }
        }
      }
      JOINT left_manubrium
      {
        OFFSET 5.722621 16.35077 3.967754
        CHANNELS 3 Zrotation Xrotation Yrotation
        JOINT left_clavicle
        {
          OFFSET 13.16364 1.694482 -4.693211
          CHANNELS 3 Zrotation Xrotation Yrotation
          JOINT left_humerus
          {
            OFFSET 29.39168 -1.063119 -2.237045
            CHANNELS 3 Zrotation Xrotation Yrotation
            JOINT left_radius
            {
              OFFSET 24.59957 -0.9528479 0.9047498
              CHANNELS 3 Zrotation Xrotation Yrotation
              End Site
              {
                OFFSET 15 -0 -0
              }
            }
          }
        }
      }
    }
  }
}
MOTION
Frames: 11
Frame Time: 0.0416666666667
0 103.5113 0 -0.08578842 -0.9469765 0.1913592 2.289417 -10.53253 12.44083 -0 35.62154 -0 -5.612359 -15.25698 -6.594387 -4.940613 5.662766 -19.23418 -0 12.4381 -0 6.722753 -21.20605 25.29976 -0.7008118 -6.273558 6.142141 0.37678 14.4113 -6.599992 3.812832 19.19608 4.595016 2.91994 -25.43063 10.44229 7.843162 -21.94796 11.05641 84.52894 32.20344 -21.20131 -0 0 17.96883 -14.0914 8.525457 2.937947 11.29307 -25.81563 -1.814711 -98.6323 22.63796 26.41557 0 0 -22.65958 11.88411 8.666527 11.73229
0.454424 103.504 1.57573 -0.09130649 -0.9668901 0.03100695 3.172491 -14.34034 11.63143 -0 40.81221 -0 -5.640529 -14.65297 -7.255103 -5.270715 7.030147 -19.03265 -0 11.65298 -0 6.320945 -21.62782 25.24713 -1.170681 -5.251342 5.580035 0.7369917 14.13688 -7.192065 3.652699 19.03785 5.08084 3.157134 -25.40501 10.66799 7.795435 -21.98457 10.97181 84.41691 32.2223 -20.99893 -0 0 17.67765 -14.19925 8.513883 3.236822 11.51413 -25.97666 -2.307855 -98.10577 23.20422 25.62273 0 0 -22.79214 11.68112 8.210411 11.6204
0.7728968 103.658 3.033667 -0.1033582 -1.024288 -0.4224801 3.859361 -18.4143 10.34098 -0 42.74737 -0 -5.614087 -14.04032 -7.453853 -5.213735 8.551747 -18.72908 -0 10.6726 -0 5.702312 -22.02977 24.91519 -1.561473 -4.020166 5.46625 0.9864608 13.85493 -7.374775 3.51234 18.9596 5.536594 3.399297 -25.45206 10.88068 7.776997 -22.0081 10.98664 84.49295 32.2771 -20.88277 -0 0 17.27106 -14.24323 8.526122 3.518273 11.55981 -26.00745 -2.56799 -97.76594 23.61909 24.7977 0 0 -23.14164 11.48482 7.756118 11.46924
1.063572 103.6259 4.989467 -0.108847 -1.040669 -0.5586344 4.328861 -22.30313 9.269929 -0 41.28378 -0 -5.47277 -13.05742 -7.373741 -5.273383 10.25829 -18.35264 -0 9.730235 -0 5.039891 -22.53226 24.48486 -1.944942 -2.532529 5.422485 1.251475 13.64412 -7.543511 3.417597 18.51496 5.89891 3.638366 -25.56772 10.98644 7.462073 -21.85245 10.77728 84.87811 32.33076 -21.01317 -0 0 16.81146 -14.23126 8.560864 3.814328 11.94298 -26.17365 -2.434187 -97.29255 23.92781 23.64088 0 0 -24.1219 11.43228 7.381629 11.08128
1.356882 103.4533 7.234185 -0.115237 -1.0619 -0.7339304 4.748587 -25.55832 8.073788 -0 37.52856 -0 -5.251468 -11.34736 -7.101656 -5.365381 12.06056 -17.95406 -0 9.029346 -0 4.36838 -23.1826 23.91916 -2.248978 -1.190443 5.347284 1.631383 13.34135 -7.798761 3.373071 18.05205 6.197506 3.865102 -25.73203 11.0813 6.971065 -21.62061 10.63803 85.39247 32.42507 -21.2243 -0 0 16.22982 -14.18226 8.62831 4.097132 12.40988 -26.12454 -2.516494 -96.94531 24.24059 22.47046 0 0 -25.33378 11.34139 7.070338 10.56375
1.641422 102.9256 9.79615 -0.1151335 -1.047955 -0.634959 4.793198 -28.15029 7.136282 -0 31.56689 -0 -5.032787 -9.400453 -6.402435 -5.358136 13.78562 -17.56156 -0 8.608189 -0 3.743196 -24.04985 23.13436 -2.434781 0.1064641 5.217044 1.910198 12.94577 -8.090092 3.254471 17.67705 6.488009 4.035951 -25.85893 11.1171 6.343922 -21.28573 10.48747 86.09547 32.52735 -21.52154 -0 0 15.58816 -14.10861 8.711676 4.404218 12.95334 -26.26379 -2.512773 -96.29925 24.46603 20.99513 0 0 -26.72778 11.36507 6.7791 9.93282
1.855569 102.2625 12.73974 -0.1050763 -0.9793791 -0.107901 4.518392 -30.13299 6.398034 -0 24.96802 -0 -5.013305 -7.590132 -5.53564 -5.490311 15.52185 -16.9834 -0 8.967992 -0 3.052453 -24.86312 22.22044 -2.449021 1.215651 5.078969 2.071296 12.67806 -8.319054 3.093224 17.59359 6.764941 4.228284 -25.75266 11.04685 5.781425 -20.90667 10.27594 86.92769 32.63696 -21.93846 -0 0 14.74283 -14.03486 8.805774 4.711166 13.29791 -26.56705 -2.317937 -95.66165 24.68604 19.57667 0 0 -27.90634 11.30815 6.544212 9.325354
2.042982 101.4032 16.16521 -0.09329973 -0.8992581 0.5106366 4.335554 -31.46874 5.749329 -0 19.14675 -0 -5.204981 -6.187467 -4.759689 -5.448701 17.01968 -16.40705 -0 10.00238 -0 2.204813 -25.56204 21.01889 -2.362358 2.111825 4.717337 2.145399 12.32122 -8.721231 2.936836 17.43958 6.967231 4.388936 -25.62031 10.88606 5.313208 -20.54968 10.12422 87.79342 32.76124 -22.36109 -0 0 13.81762 -13.99347 8.911954 5.056011 13.32314 -26.7509 -2.28495 -95.04337 24.90333 18.41789 0 0 -28.62196 11.15696 6.356482 8.808788
2.167717 100.5875 20.02364 -0.0754904 -0.7766467 1.462124 4.203294 -32.1421 5.034675 -0 15.63086 -0 -5.701273 -5.0142 -4.452909 -5.409886 18.36151 -15.63316 -0 12.08552 -0 1.079057 -25.70903 19.60289 -2.118419 2.769873 4.238861 2.179896 11.94195 -9.159132 2.711118 17.37496 7.12688 4.488551 -25.41809 10.62143 4.962521 -20.24234 9.979963 88.65002 32.89702 -22.76645 -0 0 12.80082 -14.00238 9.02277 5.450797 13.16275 -26.7836 -2.217532 -94.47348 25.09198 17.65709 0 0 -28.71294 10.93721 6.160756 8.478341
2.149506 99.90953 24.57268 -0.05714279 -0.6383231 2.536143 4.110958 -31.26922 4.420431 -0 15.49305 -0 -6.522291 -4.09221 -4.661654 -5.234146 18.9916 -14.81664 -0 15.62907 -0 -0.5113423 -24.72437 17.97445 -1.714672 3.070316 3.875942 2.082749 11.55491 -9.413794 2.497579 17.30512 7.230122 4.573768 -25.3022 10.31279 4.735333 -19.68308 10.02745 89.71827 32.99407 -23.35188 -0 0 11.6479 -14.04718 9.158978 5.864407 12.6713 -26.76863 -2.124276 -94.02628 25.23914 17.30127 0 0 -28.24989 10.68714 5.970629 8.241512
2.10626 99.75686 29.73591 -0.04332368 -0.5209978 3.44646 4.028554 -29.39258 4.061899 -0 17.22039 -0 -7.486473 -3.585802 -4.84446 -4.981215 19.06142 -13.78755 -0 20.77464 -0 -2.631518 -22.00314 16.08712 -1.238007 3.019319 3.629299 1.997746 11.17615 -9.571458 2.169433 17.35499 7.32379 4.581121 -25.17065 9.917433 4.669816 -19.13844 10.20857 90.66684 33.13225 -23.90712 -0 0 10.34189 -14.14553 9.320649 6.32004 11.92474 -26.35364 -2.1353 -93.8658 25.29126 17.54522 0 0 -27.32956 10.44847 5.781049 8.122968
